<svg xmlns="http://www.w3.org/2000/svg" viewBox="0 0 64 64" role="img" aria-labelledby="title">
  <title id="title">WhatsApp</title>
  <circle cx="32" cy="32" r="30" fill="#25D366"/>
  <path fill="#fff" d="M32.4 13.5c-10.1 0-18.3 8.1-18.3 18.1 0 3.2.9 6.3 2.5 9l-2.7 9.9 10.2-2.6c2.5 1.4 5.4 2.1 8.3 2.1 10.1 0 18.3-8.1 18.3-18.1S42.5 13.5 32.4 13.5Zm0 33.4c-2.7 0-5.2-.7-7.4-2.1l-.5-.3-6 1.6 1.6-5.8-.4-.6c-1.5-2.4-2.3-5.2-2.3-8 0-8.3 6.8-15.1 15.1-15.1 4 0 7.8 1.6 10.7 4.4 2.9 2.9 4.4 6.6 4.4 10.7-.1 8.4-6.9 15.2-15.2 15.2Zm8.3-11.3c-.5-.2-2.7-1.3-3.1-1.5-.4-.2-.7-.2-1 .2-.3.5-1.2 1.5-1.5 1.8-.3.3-.5.3-1 .1-.5-.2-1.9-.7-3.6-2.2-1.3-1.2-2.2-2.6-2.5-3.1-.3-.5 0-.7.2-1 .2-.2.5-.5.7-.8.2-.3.3-.5.5-.8.2-.3.1-.6 0-.8-.1-.2-1-2.4-1.4-3.3-.4-.9-.7-.8-1-.8h-.9c-.3 0-.8.1-1.2.6-.4.5-1.6 1.6-1.6 3.8s1.7 4.4 1.9 4.7c.2.3 3.3 5 8 7 1.1.5 2 .8 2.7 1 .8.3 1.6.2 2.2.1.7-.1 2.7-1.1 3.1-2.2.4-1.1.4-2 .3-2.2-.2-.3-.5-.4-1-.6Z"/>
</svg>
